<svg xmlns="http://www.w3.org/2000/svg" xmlns:xlink="http://www.w3.org/1999/xlink" width="350" zoomAndPan="magnify" viewBox="0 0 262.5 30.000001" height="40" preserveAspectRatio="xMidYMid meet" version="1.2"><defs><clipPath id="23efe05e03"><path d="M 6.894531 5.1875 L 88.285156 5.1875 L 88.285156 26.128906 L 6.894531 26.128906 Z M 6.894531 5.1875 "/></clipPath><clipPath id="ce68b04839"><path d="M 8.511719 5.1875 L 86.664062 5.1875 C 87.09375 5.1875 87.503906 5.359375 87.808594 5.660156 C 88.109375 5.964844 88.28125 6.375 88.28125 6.804688 L 88.28125 24.515625 C 88.28125 24.941406 88.109375 25.351562 87.808594 25.65625 C 87.503906 25.957031 87.09375 26.128906 86.664062 26.128906 L 8.511719 26.128906 C 8.082031 26.128906 7.671875 25.957031 7.367188 25.65625 C 7.066406 25.351562 6.894531 24.941406 6.894531 24.515625 L 6.894531 6.804688 C 6.894531 6.375 7.066406 5.964844 7.367188 5.660156 C 7.671875 5.359375 8.082031 5.1875 8.511719 5.1875 Z M 8.511719 5.1875 "/></clipPath></defs><g id="d22225b702"><g clip-rule="nonzero" clip-path="url(#23efe05e03)"><g clip-rule="nonzero" clip-path="url(#ce68b04839)"><path style=" stroke:none;fill-rule:nonzero;fill:#e10000;fill-opacity:1;" d="M 6.894531 5.1875 L 88.285156 5.1875 L 88.285156 26.128906 L 6.894531 26.128906 Z M 6.894531 5.1875 "/></g></g><g style="fill:#ffffff;fill-opacity:1;"><g transform="translate(10.590875, 20.480021)"><path style="stroke:none" d="M 1.46875 0 L 1.46875 -11.28125 L 6 -11.28125 C 7.164062 -11.28125 8.046875 -11.007812 8.640625 -10.46875 C 9.234375 -9.9375 9.53125 -9.195312 9.53125 -8.25 C 9.53125 -7.5625 9.351562 -7 9 -6.5625 C 8.65625 -6.125 8.140625 -5.789062 7.453125 -5.5625 L 7.453125 -5.40625 C 7.804688 -5.25 8.09375 -5.015625 8.3125 -4.703125 C 8.53125 -4.398438 8.738281 -3.953125 8.9375 -3.359375 L 10.0625 0 L 7.765625 0 L 6.671875 -3.375 C 6.554688 -3.707031 6.425781 -3.96875 6.28125 -4.15625 C 6.144531 -4.34375 5.96875 -4.476562 5.75 -4.5625 C 5.53125 -4.65625 5.242188 -4.703125 4.890625 -4.703125 L 3.6875 -4.703125 L 3.6875 0 Z M 5.71875 -6.46875 C 6.800781 -6.46875 7.34375 -6.96875 7.34375 -7.96875 C 7.34375 -9 6.800781 -9.515625 5.71875 -9.515625 L 3.6875 -9.515625 L 3.6875 -6.46875 Z M 5.71875 -6.46875 "/></g></g><g style="fill:#ffffff;fill-opacity:1;"><g transform="translate(21.135491, 20.480021)"><path style="stroke:none" d="M 10.828125 0 L 8.484375 0 L 7.625 -2.59375 L 3.3125 -2.59375 L 2.453125 0 L 0.171875 0 L 4.0625 -11.28125 L 6.921875 -11.28125 Z M 5.359375 -8.921875 L 3.90625 -4.46875 L 7.015625 -4.46875 L 5.546875 -8.921875 Z M 5.359375 -8.921875 "/></g></g><g style="fill:#ffffff;fill-opacity:1;"><g transform="translate(32.127501, 20.480021)"><path style="stroke:none" d="M 3.625 0 L 1.46875 0 L 1.46875 -11.28125 L 4.015625 -11.28125 L 8.546875 -4.015625 L 8.75 -4.046875 L 8.75 -11.28125 L 10.890625 -11.28125 L 10.890625 0 L 8.609375 0 L 3.8125 -7.765625 L 3.625 -7.734375 Z M 3.625 0 "/></g></g><g style="fill:#ffffff;fill-opacity:1;"><g transform="translate(44.492546, 20.480021)"><path style="stroke:none" d="M 5.515625 -11.28125 C 7.347656 -11.28125 8.742188 -10.804688 9.703125 -9.859375 C 10.671875 -8.910156 11.15625 -7.503906 11.15625 -5.640625 C 11.15625 -3.773438 10.671875 -2.367188 9.703125 -1.421875 C 8.742188 -0.472656 7.347656 0 5.515625 0 L 1.46875 0 L 1.46875 -11.28125 Z M 5.390625 -1.875 C 6.554688 -1.875 7.425781 -2.171875 8 -2.765625 C 8.570312 -3.359375 8.859375 -4.316406 8.859375 -5.640625 C 8.859375 -6.960938 8.570312 -7.921875 8 -8.515625 C 7.425781 -9.109375 6.554688 -9.40625 5.390625 -9.40625 L 3.6875 -9.40625 L 3.6875 -1.875 Z M 5.390625 -1.875 "/></g></g><g style="fill:#ffffff;fill-opacity:1;"><g transform="translate(56.549044, 20.480021)"><path style="stroke:none" d="M 6.140625 0.15625 C 5.109375 0.15625 4.195312 -0.0507812 3.40625 -0.46875 C 2.625 -0.894531 2.007812 -1.539062 1.5625 -2.40625 C 1.113281 -3.269531 0.890625 -4.347656 0.890625 -5.640625 C 0.890625 -6.929688 1.113281 -8.007812 1.5625 -8.875 C 2.007812 -9.738281 2.625 -10.378906 3.40625 -10.796875 C 4.195312 -11.222656 5.109375 -11.4375 6.140625 -11.4375 C 7.179688 -11.4375 8.09375 -11.226562 8.875 -10.8125 C 9.664062 -10.394531 10.28125 -9.75 10.71875 -8.875 C 11.164062 -8.007812 11.390625 -6.929688 11.390625 -5.640625 C 11.390625 -4.347656 11.164062 -3.265625 10.71875 -2.390625 C 10.28125 -1.523438 9.664062 -0.882812 8.875 -0.46875 C 8.09375 -0.0507812 7.179688 0.15625 6.140625 0.15625 Z M 6.140625 -1.78125 C 7.097656 -1.78125 7.828125 -2.085938 8.328125 -2.703125 C 8.835938 -3.316406 9.09375 -4.296875 9.09375 -5.640625 C 9.09375 -6.984375 8.835938 -7.960938 8.328125 -8.578125 C 7.828125 -9.203125 7.097656 -9.515625 6.140625 -9.515625 C 5.179688 -9.515625 4.445312 -9.203125 3.9375 -8.578125 C 3.4375 -7.960938 3.1875 -6.984375 3.1875 -5.640625 C 3.1875 -4.296875 3.4375 -3.316406 3.9375 -2.703125 C 4.445312 -2.085938 5.179688 -1.78125 6.140625 -1.78125 Z M 6.140625 -1.78125 "/></g></g><g style="fill:#ffffff;fill-opacity:1;"><g transform="translate(68.836953, 20.480021)"><path style="stroke:none" d="M 3.515625 0 L 1.46875 0 L 1.46875 -11.28125 L 4.375 -11.28125 L 7.234375 -2.984375 L 7.390625 -2.984375 L 10.234375 -11.28125 L 13.078125 -11.28125 L 13.078125 0 L 10.96875 0 L 10.96875 -7.453125 L 10.78125 -7.484375 L 8.171875 0 L 6.3125 0 L 3.703125 -7.484375 L 3.515625 -7.453125 Z M 3.515625 0 "/></g></g><g style="fill:#000000;fill-opacity:1;"><g transform="translate(94.071144, 20.842925)"><path style="stroke:none" d="M 3.28125 0 L 1.296875 0 L 1.296875 -10.03125 L 3.28125 -10.03125 Z M 3.28125 0 "/></g></g><g style="fill:#000000;fill-opacity:1;"><g transform="translate(98.667959, 20.842925)"><path style="stroke:none" d="M 4.90625 -10.03125 C 6.539062 -10.03125 7.785156 -9.609375 8.640625 -8.765625 C 9.492188 -7.921875 9.921875 -6.671875 9.921875 -5.015625 C 9.921875 -3.359375 9.492188 -2.109375 8.640625 -1.265625 C 7.785156 -0.421875 6.539062 0 4.90625 0 L 1.296875 0 L 1.296875 -10.03125 Z M 4.796875 -1.671875 C 5.828125 -1.671875 6.597656 -1.929688 7.109375 -2.453125 C 7.617188 -2.984375 7.875 -3.835938 7.875 -5.015625 C 7.875 -6.191406 7.617188 -7.039062 7.109375 -7.5625 C 6.597656 -8.09375 5.828125 -8.359375 4.796875 -8.359375 L 3.28125 -8.359375 L 3.28125 -1.671875 Z M 4.796875 -1.671875 "/></g></g><g style="fill:#000000;fill-opacity:1;"><g transform="translate(109.391579, 20.842925)"><path style="stroke:none" d="M 3.28125 -4.40625 L 3.28125 -1.65625 L 8.078125 -1.65625 L 8.078125 0 L 1.296875 0 L 1.296875 -10.03125 L 7.96875 -10.03125 L 7.96875 -8.375 L 3.28125 -8.375 L 3.28125 -6.015625 L 7.375 -6.015625 L 7.375 -4.40625 Z M 3.28125 -4.40625 "/></g></g><g style="fill:#000000;fill-opacity:1;"><g transform="translate(118.015758, 20.842925)"><path style="stroke:none" d="M 3.21875 0 L 1.296875 0 L 1.296875 -10.03125 L 3.578125 -10.03125 L 7.59375 -3.5625 L 7.78125 -3.59375 L 7.78125 -10.03125 L 9.6875 -10.03125 L 9.6875 0 L 7.65625 0 L 3.390625 -6.90625 L 3.21875 -6.875 Z M 3.21875 0 "/></g></g><g style="fill:#000000;fill-opacity:1;"><g transform="translate(129.013814, 20.842925)"><path style="stroke:none" d="M 8.03125 -10.03125 L 8.03125 -8.359375 L 5.140625 -8.359375 L 5.140625 0 L 3.171875 0 L 3.171875 -8.359375 L 0.28125 -8.359375 L 0.28125 -10.03125 Z M 8.03125 -10.03125 "/></g></g><g style="fill:#000000;fill-opacity:1;"><g transform="translate(137.329246, 20.842925)"><path style="stroke:none" d="M 3.28125 0 L 1.296875 0 L 1.296875 -10.03125 L 3.28125 -10.03125 Z M 3.28125 0 "/></g></g><g style="fill:#000000;fill-opacity:1;"><g transform="translate(141.926061, 20.842925)"><path style="stroke:none" d="M 8.03125 -10.03125 L 8.03125 -8.359375 L 5.140625 -8.359375 L 5.140625 0 L 3.171875 0 L 3.171875 -8.359375 L 0.28125 -8.359375 L 0.28125 -10.03125 Z M 8.03125 -10.03125 "/></g></g><g style="fill:#000000;fill-opacity:1;"><g transform="translate(150.241493, 20.842925)"><path style="stroke:none" d="M 5.5 0 L 3.515625 0 L 3.515625 -3.9375 L 0.046875 -10.03125 L 2.171875 -10.03125 L 4.46875 -6.078125 L 4.640625 -6.078125 L 6.875 -10.03125 L 8.953125 -10.03125 L 5.5 -3.9375 Z M 5.5 0 "/></g></g><g style="fill:#000000;fill-opacity:1;"><g transform="translate(159.249883, 20.842925)"><path style="stroke:none" d=""/></g></g><g style="fill:#000000;fill-opacity:1;"><g transform="translate(162.563712, 20.842925)"><path style="stroke:none" d="M 4.875 0.140625 C 4.03125 0.140625 3.300781 -0.046875 2.6875 -0.421875 C 2.082031 -0.804688 1.613281 -1.382812 1.28125 -2.15625 C 0.945312 -2.925781 0.78125 -3.878906 0.78125 -5.015625 C 0.78125 -6.160156 0.976562 -7.117188 1.375 -7.890625 C 1.78125 -8.660156 2.335938 -9.234375 3.046875 -9.609375 C 3.753906 -9.984375 4.570312 -10.171875 5.5 -10.171875 C 6.457031 -10.171875 7.273438 -9.992188 7.953125 -9.640625 C 8.628906 -9.285156 9.109375 -8.753906 9.390625 -8.046875 L 7.9375 -7.171875 L 7.765625 -7.171875 C 7.554688 -7.617188 7.265625 -7.945312 6.890625 -8.15625 C 6.523438 -8.363281 6.0625 -8.46875 5.5 -8.46875 C 4.632812 -8.46875 3.972656 -8.191406 3.515625 -7.640625 C 3.054688 -7.097656 2.828125 -6.222656 2.828125 -5.015625 C 2.828125 -3.804688 3.039062 -2.925781 3.46875 -2.375 C 3.894531 -1.820312 4.53125 -1.546875 5.375 -1.546875 C 6.09375 -1.546875 6.625 -1.707031 6.96875 -2.03125 C 7.3125 -2.363281 7.484375 -2.847656 7.484375 -3.484375 L 7.484375 -3.921875 L 5.109375 -3.921875 L 5.109375 -5.53125 L 9.453125 -5.53125 L 9.453125 0 L 7.5625 0 L 7.5625 -1.34375 L 7.421875 -1.359375 C 7.210938 -0.878906 6.894531 -0.507812 6.46875 -0.25 C 6.050781 0.0078125 5.519531 0.140625 4.875 0.140625 Z M 4.875 0.140625 "/></g></g><g style="fill:#000000;fill-opacity:1;"><g transform="translate(173.026617, 20.842925)"><path style="stroke:none" d="M 3.28125 -4.40625 L 3.28125 -1.65625 L 8.078125 -1.65625 L 8.078125 0 L 1.296875 0 L 1.296875 -10.03125 L 7.96875 -10.03125 L 7.96875 -8.375 L 3.28125 -8.375 L 3.28125 -6.015625 L 7.375 -6.015625 L 7.375 -4.40625 Z M 3.28125 -4.40625 "/></g></g><g style="fill:#000000;fill-opacity:1;"><g transform="translate(181.650796, 20.842925)"><path style="stroke:none" d="M 3.21875 0 L 1.296875 0 L 1.296875 -10.03125 L 3.578125 -10.03125 L 7.59375 -3.5625 L 7.78125 -3.59375 L 7.78125 -10.03125 L 9.6875 -10.03125 L 9.6875 0 L 7.65625 0 L 3.390625 -6.90625 L 3.21875 -6.875 Z M 3.21875 0 "/></g></g><g style="fill:#000000;fill-opacity:1;"><g transform="translate(192.648852, 20.842925)"><path style="stroke:none" d="M 3.28125 -4.40625 L 3.28125 -1.65625 L 8.078125 -1.65625 L 8.078125 0 L 1.296875 0 L 1.296875 -10.03125 L 7.96875 -10.03125 L 7.96875 -8.375 L 3.28125 -8.375 L 3.28125 -6.015625 L 7.375 -6.015625 L 7.375 -4.40625 Z M 3.28125 -4.40625 "/></g></g><g style="fill:#000000;fill-opacity:1;"><g transform="translate(201.273031, 20.842925)"><path style="stroke:none" d="M 1.296875 0 L 1.296875 -10.03125 L 5.328125 -10.03125 C 6.367188 -10.03125 7.148438 -9.789062 7.671875 -9.3125 C 8.203125 -8.832031 8.46875 -8.171875 8.46875 -7.328125 C 8.46875 -6.722656 8.3125 -6.222656 8 -5.828125 C 7.695312 -5.441406 7.238281 -5.144531 6.625 -4.9375 L 6.625 -4.796875 C 6.9375 -4.660156 7.191406 -4.457031 7.390625 -4.1875 C 7.585938 -3.914062 7.769531 -3.515625 7.9375 -2.984375 L 8.9375 0 L 6.90625 0 L 5.921875 -3 C 5.828125 -3.300781 5.710938 -3.535156 5.578125 -3.703125 C 5.453125 -3.867188 5.289062 -3.988281 5.09375 -4.0625 C 4.90625 -4.132812 4.65625 -4.171875 4.34375 -4.171875 L 3.28125 -4.171875 L 3.28125 0 Z M 5.09375 -5.75 C 6.050781 -5.75 6.53125 -6.195312 6.53125 -7.09375 C 6.53125 -8 6.050781 -8.453125 5.09375 -8.453125 L 3.28125 -8.453125 L 3.28125 -5.75 Z M 5.09375 -5.75 "/></g></g><g style="fill:#000000;fill-opacity:1;"><g transform="translate(210.651911, 20.842925)"><path style="stroke:none" d="M 9.625 0 L 7.53125 0 L 6.78125 -2.3125 L 2.9375 -2.3125 L 2.1875 0 L 0.15625 0 L 3.609375 -10.03125 L 6.15625 -10.03125 Z M 4.765625 -7.9375 L 3.484375 -3.984375 L 6.234375 -3.984375 L 4.9375 -7.9375 Z M 4.765625 -7.9375 "/></g></g><g style="fill:#000000;fill-opacity:1;"><g transform="translate(219.536771, 20.842925)"><path style="stroke:none" d="M 8.03125 -10.03125 L 8.03125 -8.359375 L 5.140625 -8.359375 L 5.140625 0 L 3.171875 0 L 3.171875 -8.359375 L 0.28125 -8.359375 L 0.28125 -10.03125 Z M 8.03125 -10.03125 "/></g></g><g style="fill:#000000;fill-opacity:1;"><g transform="translate(227.612066, 20.842925)"><path style="stroke:none" d="M 5.46875 0.140625 C 4.550781 0.140625 3.738281 -0.046875 3.03125 -0.421875 C 2.332031 -0.796875 1.78125 -1.367188 1.375 -2.140625 C 0.976562 -2.910156 0.78125 -3.867188 0.78125 -5.015625 C 0.78125 -6.160156 0.976562 -7.117188 1.375 -7.890625 C 1.78125 -8.660156 2.332031 -9.234375 3.03125 -9.609375 C 3.738281 -9.984375 4.550781 -10.171875 5.46875 -10.171875 C 6.382812 -10.171875 7.191406 -9.984375 7.890625 -9.609375 C 8.585938 -9.234375 9.132812 -8.660156 9.53125 -7.890625 C 9.925781 -7.117188 10.125 -6.160156 10.125 -5.015625 C 10.125 -3.867188 9.925781 -2.90625 9.53125 -2.125 C 9.132812 -1.351562 8.585938 -0.78125 7.890625 -0.40625 C 7.191406 -0.0390625 6.382812 0.140625 5.46875 0.140625 Z M 5.46875 -1.578125 C 6.320312 -1.578125 6.972656 -1.847656 7.421875 -2.390625 C 7.867188 -2.941406 8.09375 -3.816406 8.09375 -5.015625 C 8.09375 -6.210938 7.867188 -7.082031 7.421875 -7.625 C 6.972656 -8.175781 6.320312 -8.453125 5.46875 -8.453125 C 4.613281 -8.453125 3.957031 -8.175781 3.5 -7.625 C 3.050781 -7.082031 2.828125 -6.210938 2.828125 -5.015625 C 2.828125 -3.816406 3.050781 -2.941406 3.5 -2.390625 C 3.957031 -1.847656 4.613281 -1.578125 5.46875 -1.578125 Z M 5.46875 -1.578125 "/></g></g><g style="fill:#000000;fill-opacity:1;"><g transform="translate(238.541513, 20.842925)"><path style="stroke:none" d="M 1.296875 0 L 1.296875 -10.03125 L 5.328125 -10.03125 C 6.367188 -10.03125 7.148438 -9.789062 7.671875 -9.3125 C 8.203125 -8.832031 8.46875 -8.171875 8.46875 -7.328125 C 8.46875 -6.722656 8.3125 -6.222656 8 -5.828125 C 7.695312 -5.441406 7.238281 -5.144531 6.625 -4.9375 L 6.625 -4.796875 C 6.9375 -4.660156 7.191406 -4.457031 7.390625 -4.1875 C 7.585938 -3.914062 7.769531 -3.515625 7.9375 -2.984375 L 8.9375 0 L 6.90625 0 L 5.921875 -3 C 5.828125 -3.300781 5.710938 -3.535156 5.578125 -3.703125 C 5.453125 -3.867188 5.289062 -3.988281 5.09375 -4.0625 C 4.90625 -4.132812 4.65625 -4.171875 4.34375 -4.171875 L 3.28125 -4.171875 L 3.28125 0 Z M 5.09375 -5.75 C 6.050781 -5.75 6.53125 -6.195312 6.53125 -7.09375 C 6.53125 -8 6.050781 -8.453125 5.09375 -8.453125 L 3.28125 -8.453125 L 3.28125 -5.75 Z M 5.09375 -5.75 "/></g></g></g></svg>