<svg xmlns="http://www.w3.org/2000/svg" xmlns:xlink="http://www.w3.org/1999/xlink" width="350" zoomAndPan="magnify" viewBox="0 0 262.5 30.000001" height="40" preserveAspectRatio="xMidYMid meet" version="1.2"><defs><clipPath id="01fd3f3cfc"><path d="M 6.894531 5.1875 L 88.285156 5.1875 L 88.285156 26.128906 L 6.894531 26.128906 Z M 6.894531 5.1875 "/></clipPath><clipPath id="d51991ed04"><path d="M 8.511719 5.1875 L 86.664062 5.1875 C 87.09375 5.1875 87.503906 5.359375 87.808594 5.660156 C 88.109375 5.964844 88.28125 6.375 88.28125 6.804688 L 88.28125 24.515625 C 88.28125 24.941406 88.109375 25.351562 87.808594 25.65625 C 87.503906 25.957031 87.09375 26.128906 86.664062 26.128906 L 8.511719 26.128906 C 8.082031 26.128906 7.671875 25.957031 7.367188 25.65625 C 7.066406 25.351562 6.894531 24.941406 6.894531 24.515625 L 6.894531 6.804688 C 6.894531 6.375 7.066406 5.964844 7.367188 5.660156 C 7.671875 5.359375 8.082031 5.1875 8.511719 5.1875 Z M 8.511719 5.1875 "/></clipPath></defs><g id="08fdac88c3"><g clip-rule="nonzero" clip-path="url(#01fd3f3cfc)"><g clip-rule="nonzero" clip-path="url(#d51991ed04)"><path style=" stroke:none;fill-rule:nonzero;fill:#e10000;fill-opacity:1;" d="M 6.894531 5.1875 L 88.285156 5.1875 L 88.285156 26.128906 L 6.894531 26.128906 Z M 6.894531 5.1875 "/></g></g><g style="fill:#ffffff;fill-opacity:1;"><g transform="translate(11.997125, 20.480021)"><path style="stroke:none" d="M 1.078125 0 L 1.078125 -11.0625 L 5.140625 -11.0625 C 6.015625 -11.0625 6.738281 -10.910156 7.3125 -10.609375 C 7.894531 -10.304688 8.328125 -9.898438 8.609375 -9.390625 C 8.890625 -8.878906 9.03125 -8.3125 9.03125 -7.6875 C 9.03125 -7.019531 8.851562 -6.40625 8.5 -5.84375 C 8.15625 -5.28125 7.609375 -4.875 6.859375 -4.625 L 9.140625 0 L 6.828125 0 L 4.765625 -4.359375 L 3.09375 -4.359375 L 3.09375 0 Z M 3.09375 -5.84375 L 5 -5.84375 C 5.675781 -5.84375 6.171875 -6.003906 6.484375 -6.328125 C 6.804688 -6.660156 6.96875 -7.09375 6.96875 -7.625 C 6.96875 -8.15625 6.8125 -8.578125 6.5 -8.890625 C 6.1875 -9.210938 5.679688 -9.375 4.984375 -9.375 L 3.09375 -9.375 Z M 3.09375 -5.84375 "/></g></g><g style="fill:#ffffff;fill-opacity:1;"><g transform="translate(21.839092, 20.480021)"><path style="stroke:none" d="M 0.359375 0 L 4.40625 -11.0625 L 6.6875 -11.0625 L 10.71875 0 L 8.578125 0 L 7.6875 -2.5625 L 3.375 -2.5625 L 2.484375 0 Z M 3.9375 -4.140625 L 7.140625 -4.140625 L 5.53125 -8.734375 Z M 3.9375 -4.140625 "/></g></g><g style="fill:#ffffff;fill-opacity:1;"><g transform="translate(32.913278, 20.480021)"><path style="stroke:none" d="M 1.078125 0 L 1.078125 -11.0625 L 3.09375 -11.0625 L 8.296875 -3.265625 L 8.296875 -11.0625 L 10.3125 -11.0625 L 10.3125 0 L 8.296875 0 L 3.09375 -7.765625 L 3.09375 0 Z M 1.078125 0 "/></g></g><g style="fill:#ffffff;fill-opacity:1;"><g transform="translate(44.303409, 20.480021)"><path style="stroke:none" d="M 1.078125 0 L 1.078125 -11.0625 L 4.84375 -11.0625 C 6.144531 -11.0625 7.210938 -10.832031 8.046875 -10.375 C 8.878906 -9.914062 9.5 -9.269531 9.90625 -8.4375 C 10.3125 -7.613281 10.515625 -6.644531 10.515625 -5.53125 C 10.515625 -4.414062 10.3125 -3.441406 9.90625 -2.609375 C 9.5 -1.785156 8.878906 -1.144531 8.046875 -0.6875 C 7.210938 -0.226562 6.144531 0 4.84375 0 Z M 3.09375 -1.734375 L 4.75 -1.734375 C 5.675781 -1.734375 6.40625 -1.882812 6.9375 -2.1875 C 7.476562 -2.488281 7.863281 -2.921875 8.09375 -3.484375 C 8.332031 -4.046875 8.453125 -4.726562 8.453125 -5.53125 C 8.453125 -6.320312 8.332031 -7 8.09375 -7.5625 C 7.863281 -8.132812 7.476562 -8.570312 6.9375 -8.875 C 6.40625 -9.1875 5.675781 -9.34375 4.75 -9.34375 L 3.09375 -9.34375 Z M 3.09375 -1.734375 "/></g></g><g style="fill:#ffffff;fill-opacity:1;"><g transform="translate(55.535567, 20.480021)"><path style="stroke:none" d="M 6.25 0.1875 C 5.144531 0.1875 4.175781 -0.0507812 3.34375 -0.53125 C 2.519531 -1.019531 1.875 -1.691406 1.40625 -2.546875 C 0.9375 -3.410156 0.703125 -4.40625 0.703125 -5.53125 C 0.703125 -6.65625 0.9375 -7.644531 1.40625 -8.5 C 1.875 -9.363281 2.519531 -10.035156 3.34375 -10.515625 C 4.175781 -11.003906 5.144531 -11.25 6.25 -11.25 C 7.351562 -11.25 8.316406 -11.003906 9.140625 -10.515625 C 9.972656 -10.035156 10.617188 -9.363281 11.078125 -8.5 C 11.546875 -7.644531 11.78125 -6.65625 11.78125 -5.53125 C 11.78125 -4.40625 11.546875 -3.410156 11.078125 -2.546875 C 10.617188 -1.691406 9.972656 -1.019531 9.140625 -0.53125 C 8.316406 -0.0507812 7.351562 0.1875 6.25 0.1875 Z M 6.25 -1.625 C 7.300781 -1.625 8.140625 -1.972656 8.765625 -2.671875 C 9.398438 -3.367188 9.71875 -4.320312 9.71875 -5.53125 C 9.71875 -6.738281 9.398438 -7.691406 8.765625 -8.390625 C 8.140625 -9.085938 7.300781 -9.4375 6.25 -9.4375 C 5.195312 -9.4375 4.351562 -9.085938 3.71875 -8.390625 C 3.09375 -7.691406 2.78125 -6.738281 2.78125 -5.53125 C 2.78125 -4.320312 3.09375 -3.367188 3.71875 -2.671875 C 4.351562 -1.972656 5.195312 -1.625 6.25 -1.625 Z M 6.25 -1.625 "/></g></g><g style="fill:#ffffff;fill-opacity:1;"><g transform="translate(68.031541, 20.480021)"><path style="stroke:none" d="M 1.078125 0 L 1.078125 -11.0625 L 3.46875 -11.0625 L 7 -4.046875 L 10.46875 -11.0625 L 12.875 -11.0625 L 12.875 0 L 10.859375 0 L 10.859375 -7.625 L 7.765625 -1.578125 L 6.171875 -1.578125 L 3.09375 -7.625 L 3.09375 0 Z M 1.078125 0 "/></g></g><g style="fill:#ffffff;fill-opacity:1;"><g transform="translate(94.071144, 20.842925)"><path style="stroke:none" d="M 3.28125 0 L 1.296875 0 L 1.296875 -10.03125 L 3.28125 -10.03125 Z M 3.28125 0 "/></g></g><g style="fill:#ffffff;fill-opacity:1;"><g transform="translate(98.667959, 20.842925)"><path style="stroke:none" d="M 4.90625 -10.03125 C 6.539062 -10.03125 7.785156 -9.609375 8.640625 -8.765625 C 9.492188 -7.921875 9.921875 -6.671875 9.921875 -5.015625 C 9.921875 -3.359375 9.492188 -2.109375 8.640625 -1.265625 C 7.785156 -0.421875 6.539062 0 4.90625 0 L 1.296875 0 L 1.296875 -10.03125 Z M 4.796875 -1.671875 C 5.828125 -1.671875 6.597656 -1.929688 7.109375 -2.453125 C 7.617188 -2.984375 7.875 -3.835938 7.875 -5.015625 C 7.875 -6.191406 7.617188 -7.039062 7.109375 -7.5625 C 6.597656 -8.09375 5.828125 -8.359375 4.796875 -8.359375 L 3.28125 -8.359375 L 3.28125 -1.671875 Z M 4.796875 -1.671875 "/></g></g><g style="fill:#ffffff;fill-opacity:1;"><g transform="translate(109.391579, 20.842925)"><path style="stroke:none" d="M 3.28125 -4.40625 L 3.28125 -1.65625 L 8.078125 -1.65625 L 8.078125 0 L 1.296875 0 L 1.296875 -10.03125 L 7.96875 -10.03125 L 7.96875 -8.375 L 3.28125 -8.375 L 3.28125 -6.015625 L 7.375 -6.015625 L 7.375 -4.40625 Z M 3.28125 -4.40625 "/></g></g><g style="fill:#ffffff;fill-opacity:1;"><g transform="translate(118.015758, 20.842925)"><path style="stroke:none" d="M 3.21875 0 L 1.296875 0 L 1.296875 -10.03125 L 3.578125 -10.03125 L 7.59375 -3.5625 L 7.78125 -3.59375 L 7.78125 -10.03125 L 9.6875 -10.03125 L 9.6875 0 L 7.65625 0 L 3.390625 -6.90625 L 3.21875 -6.875 Z M 3.21875 0 "/></g></g><g style="fill:#ffffff;fill-opacity:1;"><g transform="translate(129.013814, 20.842925)"><path style="stroke:none" d="M 8.03125 -10.03125 L 8.03125 -8.359375 L 5.140625 -8.359375 L 5.140625 0 L 3.171875 0 L 3.171875 -8.359375 L 0.28125 -8.359375 L 0.28125 -10.03125 Z M 8.03125 -10.03125 "/></g></g><g style="fill:#ffffff;fill-opacity:1;"><g transform="translate(137.329246, 20.842925)"><path style="stroke:none" d="M 3.28125 0 L 1.296875 0 L 1.296875 -10.03125 L 3.28125 -10.03125 Z M 3.28125 0 "/></g></g><g style="fill:#ffffff;fill-opacity:1;"><g transform="translate(141.926061, 20.842925)"><path style="stroke:none" d="M 8.03125 -10.03125 L 8.03125 -8.359375 L 5.140625 -8.359375 L 5.140625 0 L 3.171875 0 L 3.171875 -8.359375 L 0.28125 -8.359375 L 0.28125 -10.03125 Z M 8.03125 -10.03125 "/></g></g><g style="fill:#ffffff;fill-opacity:1;"><g transform="translate(150.241493, 20.842925)"><path style="stroke:none" d="M 5.5 0 L 3.515625 0 L 3.515625 -3.9375 L 0.046875 -10.03125 L 2.171875 -10.03125 L 4.46875 -6.078125 L 4.640625 -6.078125 L 6.875 -10.03125 L 8.953125 -10.03125 L 5.5 -3.9375 Z M 5.5 0 "/></g></g><g style="fill:#ffffff;fill-opacity:1;"><g transform="translate(159.249883, 20.842925)"><path style="stroke:none" d=""/></g></g><g style="fill:#ffffff;fill-opacity:1;"><g transform="translate(162.563712, 20.842925)"><path style="stroke:none" d="M 4.875 0.140625 C 4.03125 0.140625 3.300781 -0.046875 2.6875 -0.421875 C 2.082031 -0.804688 1.613281 -1.382812 1.28125 -2.15625 C 0.945312 -2.925781 0.78125 -3.878906 0.78125 -5.015625 C 0.78125 -6.160156 0.976562 -7.117188 1.375 -7.890625 C 1.78125 -8.660156 2.335938 -9.234375 3.046875 -9.609375 C 3.753906 -9.984375 4.570312 -10.171875 5.5 -10.171875 C 6.457031 -10.171875 7.273438 -9.992188 7.953125 -9.640625 C 8.628906 -9.285156 9.109375 -8.753906 9.390625 -8.046875 L 7.9375 -7.171875 L 7.765625 -7.171875 C 7.554688 -7.617188 7.265625 -7.945312 6.890625 -8.15625 C 6.523438 -8.363281 6.0625 -8.46875 5.5 -8.46875 C 4.632812 -8.46875 3.972656 -8.191406 3.515625 -7.640625 C 3.054688 -7.097656 2.828125 -6.222656 2.828125 -5.015625 C 2.828125 -3.804688 3.039062 -2.925781 3.46875 -2.375 C 3.894531 -1.820312 4.53125 -1.546875 5.375 -1.546875 C 6.09375 -1.546875 6.625 -1.707031 6.96875 -2.03125 C 7.3125 -2.363281 7.484375 -2.847656 7.484375 -3.484375 L 7.484375 -3.921875 L 5.109375 -3.921875 L 5.109375 -5.53125 L 9.453125 -5.53125 L 9.453125 0 L 7.5625 0 L 7.5625 -1.34375 L 7.421875 -1.359375 C 7.210938 -0.878906 6.894531 -0.507812 6.46875 -0.25 C 6.050781 0.0078125 5.519531 0.140625 4.875 0.140625 Z M 4.875 0.140625 "/></g></g><g style="fill:#ffffff;fill-opacity:1;"><g transform="translate(173.026617, 20.842925)"><path style="stroke:none" d="M 3.28125 -4.40625 L 3.28125 -1.65625 L 8.078125 -1.65625 L 8.078125 0 L 1.296875 0 L 1.296875 -10.03125 L 7.96875 -10.03125 L 7.96875 -8.375 L 3.28125 -8.375 L 3.28125 -6.015625 L 7.375 -6.015625 L 7.375 -4.40625 Z M 3.28125 -4.40625 "/></g></g><g style="fill:#ffffff;fill-opacity:1;"><g transform="translate(181.650796, 20.842925)"><path style="stroke:none" d="M 3.21875 0 L 1.296875 0 L 1.296875 -10.03125 L 3.578125 -10.03125 L 7.59375 -3.5625 L 7.78125 -3.59375 L 7.78125 -10.03125 L 9.6875 -10.03125 L 9.6875 0 L 7.65625 0 L 3.390625 -6.90625 L 3.21875 -6.875 Z M 3.21875 0 "/></g></g><g style="fill:#ffffff;fill-opacity:1;"><g transform="translate(192.648852, 20.842925)"><path style="stroke:none" d="M 3.28125 -4.40625 L 3.28125 -1.65625 L 8.078125 -1.65625 L 8.078125 0 L 1.296875 0 L 1.296875 -10.03125 L 7.96875 -10.03125 L 7.96875 -8.375 L 3.28125 -8.375 L 3.28125 -6.015625 L 7.375 -6.015625 L 7.375 -4.40625 Z M 3.28125 -4.40625 "/></g></g><g style="fill:#ffffff;fill-opacity:1;"><g transform="translate(201.273031, 20.842925)"><path style="stroke:none" d="M 1.296875 0 L 1.296875 -10.03125 L 5.328125 -10.03125 C 6.367188 -10.03125 7.148438 -9.789062 7.671875 -9.3125 C 8.203125 -8.832031 8.46875 -8.171875 8.46875 -7.328125 C 8.46875 -6.722656 8.3125 -6.222656 8 -5.828125 C 7.695312 -5.441406 7.238281 -5.144531 6.625 -4.9375 L 6.625 -4.796875 C 6.9375 -4.660156 7.191406 -4.457031 7.390625 -4.1875 C 7.585938 -3.914062 7.769531 -3.515625 7.9375 -2.984375 L 8.9375 0 L 6.90625 0 L 5.921875 -3 C 5.828125 -3.300781 5.710938 -3.535156 5.578125 -3.703125 C 5.453125 -3.867188 5.289062 -3.988281 5.09375 -4.0625 C 4.90625 -4.132812 4.65625 -4.171875 4.34375 -4.171875 L 3.28125 -4.171875 L 3.28125 0 Z M 5.09375 -5.75 C 6.050781 -5.75 6.53125 -6.195312 6.53125 -7.09375 C 6.53125 -8 6.050781 -8.453125 5.09375 -8.453125 L 3.28125 -8.453125 L 3.28125 -5.75 Z M 5.09375 -5.75 "/></g></g><g style="fill:#ffffff;fill-opacity:1;"><g transform="translate(210.651911, 20.842925)"><path style="stroke:none" d="M 9.625 0 L 7.53125 0 L 6.78125 -2.3125 L 2.9375 -2.3125 L 2.1875 0 L 0.15625 0 L 3.609375 -10.03125 L 6.15625 -10.03125 Z M 4.765625 -7.9375 L 3.484375 -3.984375 L 6.234375 -3.984375 L 4.9375 -7.9375 Z M 4.765625 -7.9375 "/></g></g><g style="fill:#ffffff;fill-opacity:1;"><g transform="translate(219.536771, 20.842925)"><path style="stroke:none" d="M 8.03125 -10.03125 L 8.03125 -8.359375 L 5.140625 -8.359375 L 5.140625 0 L 3.171875 0 L 3.171875 -8.359375 L 0.28125 -8.359375 L 0.28125 -10.03125 Z M 8.03125 -10.03125 "/></g></g><g style="fill:#ffffff;fill-opacity:1;"><g transform="translate(227.612066, 20.842925)"><path style="stroke:none" d="M 5.46875 0.140625 C 4.550781 0.140625 3.738281 -0.046875 3.03125 -0.421875 C 2.332031 -0.796875 1.78125 -1.367188 1.375 -2.140625 C 0.976562 -2.910156 0.78125 -3.867188 0.78125 -5.015625 C 0.78125 -6.160156 0.976562 -7.117188 1.375 -7.890625 C 1.78125 -8.660156 2.332031 -9.234375 3.03125 -9.609375 C 3.738281 -9.984375 4.550781 -10.171875 5.46875 -10.171875 C 6.382812 -10.171875 7.191406 -9.984375 7.890625 -9.609375 C 8.585938 -9.234375 9.132812 -8.660156 9.53125 -7.890625 C 9.925781 -7.117188 10.125 -6.160156 10.125 -5.015625 C 10.125 -3.867188 9.925781 -2.90625 9.53125 -2.125 C 9.132812 -1.351562 8.585938 -0.78125 7.890625 -0.40625 C 7.191406 -0.0390625 6.382812 0.140625 5.46875 0.140625 Z M 5.46875 -1.578125 C 6.320312 -1.578125 6.972656 -1.847656 7.421875 -2.390625 C 7.867188 -2.941406 8.09375 -3.816406 8.09375 -5.015625 C 8.09375 -6.210938 7.867188 -7.082031 7.421875 -7.625 C 6.972656 -8.175781 6.320312 -8.453125 5.46875 -8.453125 C 4.613281 -8.453125 3.957031 -8.175781 3.5 -7.625 C 3.050781 -7.082031 2.828125 -6.210938 2.828125 -5.015625 C 2.828125 -3.816406 3.050781 -2.941406 3.5 -2.390625 C 3.957031 -1.847656 4.613281 -1.578125 5.46875 -1.578125 Z M 5.46875 -1.578125 "/></g></g><g style="fill:#ffffff;fill-opacity:1;"><g transform="translate(238.541513, 20.842925)"><path style="stroke:none" d="M 1.296875 0 L 1.296875 -10.03125 L 5.328125 -10.03125 C 6.367188 -10.03125 7.148438 -9.789062 7.671875 -9.3125 C 8.203125 -8.832031 8.46875 -8.171875 8.46875 -7.328125 C 8.46875 -6.722656 8.3125 -6.222656 8 -5.828125 C 7.695312 -5.441406 7.238281 -5.144531 6.625 -4.9375 L 6.625 -4.796875 C 6.9375 -4.660156 7.191406 -4.457031 7.390625 -4.1875 C 7.585938 -3.914062 7.769531 -3.515625 7.9375 -2.984375 L 8.9375 0 L 6.90625 0 L 5.921875 -3 C 5.828125 -3.300781 5.710938 -3.535156 5.578125 -3.703125 C 5.453125 -3.867188 5.289062 -3.988281 5.09375 -4.0625 C 4.90625 -4.132812 4.65625 -4.171875 4.34375 -4.171875 L 3.28125 -4.171875 L 3.28125 0 Z M 5.09375 -5.75 C 6.050781 -5.75 6.53125 -6.195312 6.53125 -7.09375 C 6.53125 -8 6.050781 -8.453125 5.09375 -8.453125 L 3.28125 -8.453125 L 3.28125 -5.75 Z M 5.09375 -5.75 "/></g></g></g></svg>